<svg height="24" width="24" xmlns="http://www.w3.org/2000/svg"><path d="m511.3094788 58.8323326c-5.6104431 36.6847191-47.1177979 54.6580238-77.5145569 35.6342812l-32.4941101 32.4905701c114.4382629 126.4606171 55.2546082 332.993042-111.9429016 377.216217-170.8010254 45.1762695-327.3729821-112.6072083-281.1532937-283.3286591 45.1650925-166.8258934 251.1705971-224.8456802 376.7946206-110.2608795l32.3995972-32.3996048c-16.2352905-25.855751-6.1644592-62.6009369 24.7875671-74.6491699 36.5523376-14.2281342 75.0464477 16.5664234 69.1230774 55.297245zm-172.8473816 262.4078713h16.8303528c2.3955994-.0205383 3.0087585-.737793 3.2122803-3.2122192v-47.4360352c6.2612-3.1553345 11.527832-4.9359131 15.6876526-4.2709961 4.6812744.748291 6.6966858 4.098938 6.5011597 11.4610596v40.2459717c.0274048 1.3372192.1640625 3.2471619 3.3695679 3.2122192h16.8303528c2.0185547-.0120239 2.9593811-.6588135 3.0547791-3.2121277v-43.6155396c.2230225-13.2076416-1.7024841-25.3687439-13.4187622-28.8184509-10.2214966-3.0415344-23.205658-.4872742-34.9364929 9.2337799-3.1324463-6.9325714-9.9077759-10.0267029-18.2853088-10.4137573-7.578949-.3501587-16.3117065 2.1925812-24.2598267 8.6288452l.0097351-3.8811951c-.1644287-1.8114777-.5054626-3.3755951-3.3451233-3.3661041h-16.7185059c-1.8581848-.0295715-3.1766663.7232971-3.1912537 3.3660431v68.8628082c.0233765 2.2097473.8915405 3.2099915 3.1912537 3.2122498h16.7185059c2.7588806.0344543 3.237793-1.3225098 3.3451233-3.2122498v-47.4360046c16.26651-8.0345154 22.5499878-4.676239 22.1886902 6.7321167v40.7073669c.0563962 2.2020874.7949216 3.1681519 3.2158201 3.2122193zm-60.6064453-67.2443848c.5137939-1.9574127.2796021-3.3171387-.6885986-4.0895996-9.1610413-5.6062927-31.288208-7.5981293-43.6891174-3.0832062-11.5599823 4.208786-15.3627777 13.4933014-15.6067963 21.9933014-.1071625 16.7580566 12.2625732 21.0881653 30.1442566 23.321228 6.0541534.7928162 8.8132782 1.6869507 8.567215 6.2881775.3307495 8.978302-20.1406555 5.3546753-32.5910645 3.6876831-4.4236145-.8269348-4.2844849.5942383-4.900589 2.5970764l-1.6812897 7.2843933c-.776062 3.9047852-.4822998 5.1662292 5.2011108 7.2843933 22.6403351 5.992981 46.637146 4.552002 55.0105591-9.8639526 4.9906311-9.0711365 3.8616943-24.6705017-6.1483765-30.4483032-6.4329224-3.9866028-14.0350952-4.5615234-20.1574554-5.5529175-6.313446-1.2495728-10.3995514-1.5263977-10.1825409-5.4331055.3384247-5.1496582 2.919754-5.5516357 13.1636963-5.0369263 10.8981018.4355774 19.0628052 2.4971924 20.5774231 1.5309448 1.3714599-.9017028 1.9526977-6.0415343 2.9815674-10.4791869zm-80.9962006-3.0298767c-8.5182648-7.5345001-30.3239136-8.8412476-52.6049194-3.0277405-3.5355072 1.6401825-5.3068848 2.2128906-4.8970642 5.966629 1.2805634 5.3419647 1.5530243 10.1190643 3.2891846 10.5595551 5.0428009.6738586 20.084549-2.5826721 31.1404419-.8458252 4.9733429 1.1669617 6.9015198 2.8590088 6.5783539 10.9406128h-17.5993347c-21.3522034-.1767273-29.6160278 9.1816406-29.3822784 25.4010315-.0278625 12.379425 3.9081421 21.938324 20.7767639 22.5046692 9.5510406.3206787 20.4554596-3.6209106 28.235611-10.6140137.8246918 3.1727295 1.6865845 5.4214783 4.380127 7.519928 2.8739166 2.2389832 10.3260498 3.5088501 17.5442505 2.4060669 4.9619751-.7580872 7.9669495-1.8923035 7.8775635-4.668335v-9.7975769c-.0587463-2.0393982-.7245941-2.3851318-3.2157593-2.6005859-5.0068054-.4137268-5.6581268-1.4276428-5.6555481-7.3473511v-24.1741333c-.6313021-9.0927124-.6390994-17.067749-6.4673922-22.2229309zm-36.395874 53.7080993c-2.3840942-.6170349-3.5696411-2.205658-3.5138092-5.9266968-.0611267-6.8109741 2.9961853-9.1089783 9.1859131-9.3362122h13.7683563.0034637v10.2555237c-6.5180664 3.779358-14.2668762 6.3472596-19.4439239 5.0073853zm-59.995842 13.3538819c0 2.1391907.9716949 3.2122803 3.219223 3.2122803h16.8303375c1.3330612-.0791016 3.1483307.0326843 3.2087708-3.2087708v-43.4617615c.2730331-13.5009155-2.0121002-20.4944305-7.092926-25.1853638-8.6842194-8.0177917-26.8329849-6.0621338-40.4933777 3.9415741l-.0000076-4.1572418c-.1664505-2.7676849-.9983139-3.3078613-3.2157516-3.3661041h-16.6765214c-2.5452805-.0067139-3.2921906 1.1347961-3.3660545 3.3660431v68.8628235c.1874695 1.2675171-.0142174 3.2213745 3.3660545 3.2122192h16.6765213c1.9903793-.0444031 3.0573654-.3695374 3.2157516-3.2122192v-47.4360352c12.4638977-5.4630432 24.5152969-8.6464233 24.32798 7.3403625v40.0921937z"/></svg>
